<svg xmlns="http://www.w3.org/2000/svg" xmlns:xlink="http://www.w3.org/1999/xlink" width="50" zoomAndPan="magnify" viewBox="0 0 37.5 37.499999" height="50" preserveAspectRatio="xMidYMid meet" version="1.0"><defs><clipPath id="f284530174"><path d="M 1.03125 0 L 36.28125 0 L 36.28125 37.007812 L 1.03125 37.007812 Z M 1.03125 0 " clip-rule="nonzero"/></clipPath></defs><g clip-path="url(#f284530174)"><path fill="#000000" d="M 36.164062 10.664062 L 33.925781 7.113281 C 34.523438 4.496094 35.234375 1.667969 35.46875 1.117188 C 35.625 0.953125 35.664062 0.722656 35.597656 0.527344 C 35.597656 0.523438 35.417969 0.0078125 34.859375 0.160156 L 34.859375 0.15625 L 34.851562 0.160156 C 34.84375 0.164062 34.835938 0.164062 34.828125 0.167969 C 34.820312 0.171875 34.8125 0.171875 34.804688 0.175781 L 29.804688 1.84375 L 23.183594 1.84375 L 17.617188 0.113281 C 17.398438 0.046875 17.160156 0.113281 17.007812 0.285156 C 16.855469 0.457031 16.820312 0.703125 16.914062 0.914062 L 19.722656 7.21875 L 17.917969 11.191406 C 17.792969 11.464844 17.894531 11.785156 18.148438 11.9375 L 21.171875 13.75 C 20.554688 14.65625 18.585938 17.644531 18.3125 19.167969 C 14.871094 21.75 12.5625 24.214844 9.554688 27.816406 C 9.539062 27.832031 9.527344 27.851562 9.515625 27.867188 C 9.511719 27.871094 9.507812 27.878906 9.507812 27.878906 C 9.5 27.894531 9.492188 27.90625 9.484375 27.917969 C 9.480469 27.925781 9.476562 27.933594 9.472656 27.941406 C 9.46875 27.949219 9.464844 27.960938 9.460938 27.96875 C 9.460938 27.96875 9.460938 27.972656 9.457031 27.972656 C 9.453125 27.984375 9.453125 27.992188 9.449219 28 C 9.445312 28.011719 9.441406 28.023438 9.4375 28.035156 C 9.4375 28.042969 9.433594 28.050781 9.433594 28.058594 C 9.429688 28.070312 9.425781 28.082031 9.425781 28.09375 C 9.421875 28.101562 9.421875 28.109375 9.421875 28.117188 C 9.417969 28.128906 9.417969 28.140625 9.417969 28.15625 C 9.417969 28.164062 9.417969 28.167969 9.417969 28.175781 C 9.414062 28.191406 9.414062 28.203125 9.417969 28.214844 C 9.417969 28.222656 9.417969 28.230469 9.417969 28.238281 C 9.417969 28.25 9.417969 28.265625 9.421875 28.277344 C 9.421875 28.28125 9.421875 28.289062 9.421875 28.292969 C 9.421875 28.296875 9.425781 28.300781 9.425781 28.308594 C 9.648438 29.628906 10.046875 30.394531 10.464844 31.207031 C 10.671875 31.609375 10.886719 32.019531 11.085938 32.519531 L 8.824219 33.941406 L 1.800781 32.136719 C 1.578125 32.082031 1.339844 32.160156 1.199219 32.339844 C 1.054688 32.523438 1.03125 32.769531 1.136719 32.976562 L 3.300781 37.171875 C 3.402344 37.367188 3.601562 37.492188 3.820312 37.492188 L 13.941406 37.492188 C 13.941406 37.492188 13.941406 37.492188 13.945312 37.492188 C 13.945312 37.492188 13.945312 37.492188 13.949219 37.492188 L 30.410156 37.492188 C 30.703125 37.492188 30.953125 37.265625 30.988281 36.972656 C 31.515625 32.378906 32.058594 29.929688 32.746094 26.824219 C 33.140625 25.050781 33.585938 23.042969 34.105469 20.289062 C 34.128906 20.207031 34.140625 20.132812 34.140625 20.058594 C 34.140625 20.058594 34.140625 20.054688 34.140625 20.054688 C 34.140625 20.050781 34.140625 20.042969 34.136719 20.039062 C 34.113281 19.015625 32.015625 14.507812 31.578125 13.871094 L 35.949219 11.492188 C 36.09375 11.414062 36.195312 11.28125 36.238281 11.125 C 36.277344 10.96875 36.25 10.800781 36.164062 10.664062 Z M 34.527344 10.253906 C 34.433594 10.203125 34.328125 10.175781 34.21875 10.183594 C 34.171875 10.183594 31.390625 10.304688 27.617188 10.378906 C 28.847656 7.792969 29.746094 5.023438 30.175781 3.582031 C 31.414062 5.074219 32.78125 7.480469 32.796875 7.511719 C 32.796875 7.511719 32.800781 7.515625 32.800781 7.519531 C 32.804688 7.523438 32.808594 7.527344 32.808594 7.535156 Z M 26.933594 15.066406 C 27.011719 14.214844 27.121094 12.835938 27.140625 11.5625 C 30.183594 11.507812 32.652344 11.417969 33.710938 11.378906 Z M 19.832031 11.582031 C 20.753906 11.59375 21.679688 11.601562 22.59375 11.601562 C 23.707031 11.601562 24.796875 11.59375 25.839844 11.578125 C 25.878906 11.621094 25.921875 11.65625 25.96875 11.6875 C 25.941406 12.960938 25.828125 14.34375 25.753906 15.128906 Z M 26.476562 10.050781 C 25.417969 7.164062 24.402344 4.34375 23.925781 3.019531 L 29.125 3.019531 C 28.722656 4.375 27.773438 7.367188 26.476562 10.050781 Z M 33.5 3.863281 C 33.34375 4.5 33.191406 5.136719 33.0625 5.679688 C 32.507812 4.785156 31.71875 3.589844 30.957031 2.699219 C 31.816406 2.410156 33.128906 1.972656 34.074219 1.65625 C 33.917969 2.199219 33.726562 2.941406 33.5 3.863281 Z M 18.503906 1.621094 L 22.066406 2.726562 C 21.632812 3.457031 20.902344 4.871094 20.394531 5.863281 Z M 20.886719 7.476562 C 20.972656 7.308594 22.207031 4.851562 22.902344 3.617188 C 23.398438 5.007812 24.359375 7.675781 25.363281 10.410156 C 23.511719 10.433594 21.523438 10.433594 19.558594 10.40625 Z M 25.101562 26.601562 C 25.300781 28.28125 25.265625 29.671875 25.21875 31.558594 C 25.1875 32.882812 25.148438 34.371094 25.183594 36.316406 L 21.75 36.316406 C 21.679688 34.976562 21.386719 33.535156 21.019531 31.710938 C 20.5 29.113281 19.867188 25.964844 19.566406 21.660156 C 20.097656 22.242188 20.835938 22.96875 21.871094 23.890625 C 23.234375 25.105469 24.609375 26.210938 25.101562 26.601562 Z M 14.316406 36.320312 C 13.703125 35.015625 12.367188 32.484375 12.199219 32.160156 C 11.964844 31.570312 11.722656 31.097656 11.5 30.667969 C 11.25 30.183594 11.023438 29.742188 10.839844 29.191406 C 13.5 30.339844 15.882812 31.625 20.035156 36.320312 Z M 18.332031 20.628906 C 18.601562 25.605469 19.332031 29.242188 19.875 31.945312 C 20.109375 33.109375 20.3125 34.113281 20.445312 35.019531 C 16.222656 30.363281 13.695312 29.132812 10.957031 27.964844 C 13.46875 24.992188 15.53125 22.816406 18.332031 20.628906 Z M 11.617188 33.570312 C 11.917969 34.152344 12.320312 34.929688 12.679688 35.640625 C 11.972656 35.300781 11.082031 34.886719 10.171875 34.480469 Z M 2.773438 33.601562 L 8.734375 35.132812 C 9.628906 35.515625 10.5625 35.941406 11.371094 36.320312 L 4.175781 36.320312 Z M 29.890625 36.320312 L 26.351562 36.320312 C 26.316406 34.382812 26.351562 32.90625 26.386719 31.585938 C 26.433594 29.761719 26.46875 28.296875 26.273438 26.578125 C 26.902344 26.152344 28.433594 25.101562 29.949219 24 C 31.046875 23.199219 31.933594 22.515625 32.589844 21.964844 C 32.226562 23.777344 31.902344 25.242188 31.605469 26.570312 C 30.9375 29.589844 30.402344 31.996094 29.890625 36.320312 Z M 30.625 14.550781 C 30.992188 15.042969 32.828125 19.121094 32.964844 19.988281 C 32.582031 20.582031 29.835938 22.761719 25.679688 25.566406 C 25.113281 25.113281 23.898438 24.128906 22.691406 23.054688 C 19.675781 20.367188 19.464844 19.597656 19.449219 19.496094 C 19.449219 19.492188 19.449219 19.488281 19.449219 19.484375 C 19.453125 18.652344 21.253906 15.660156 22.171875 14.351562 L 25.945312 16.613281 C 26.039062 16.667969 26.140625 16.695312 26.246094 16.695312 C 26.339844 16.695312 26.4375 16.671875 26.523438 16.625 L 30.558594 14.429688 C 30.574219 14.472656 30.597656 14.511719 30.625 14.550781 Z M 34.824219 10.769531 C 34.824219 10.761719 34.828125 10.753906 34.824219 10.742188 C 34.824219 10.738281 34.824219 10.734375 34.824219 10.730469 L 34.84375 10.761719 Z M 34.824219 10.769531 " fill-opacity="1" fill-rule="nonzero"/></g></svg>