<svg xmlns="http://www.w3.org/2000/svg" xmlns:xlink="http://www.w3.org/1999/xlink" width="50" zoomAndPan="magnify" viewBox="0 0 37.5 37.499999" height="50" preserveAspectRatio="xMidYMid meet" version="1.0"><defs><clipPath id="560af379d3"><path d="M 2.777344 0.78125 L 35.027344 0.78125 L 35.027344 37.007812 L 2.777344 37.007812 Z M 2.777344 0.78125 " clip-rule="nonzero"/></clipPath></defs><g clip-path="url(#560af379d3)"><path fill="#ffffff" d="M 17.171875 32.835938 C 17.15625 33.902344 17.484375 34.851562 18.160156 35.453125 C 19.167969 36.355469 20.910156 36.355469 22.035156 35.898438 C 22.957031 35.523438 23.496094 34.847656 24.066406 34.132812 C 24.742188 33.285156 25.507812 32.324219 26.953125 32.007812 C 27.710938 31.84375 28.519531 31.886719 29.347656 32.136719 C 29.699219 32.242188 29.898438 32.609375 29.792969 32.960938 C 29.6875 33.308594 29.3125 33.507812 28.960938 33.402344 C 28.351562 33.21875 27.769531 33.183594 27.238281 33.300781 C 26.261719 33.515625 25.753906 34.148438 25.113281 34.953125 C 24.492188 35.734375 23.789062 36.617188 22.542969 37.125 C 21.925781 37.375 21.171875 37.53125 20.394531 37.53125 C 19.292969 37.53125 18.144531 37.21875 17.265625 36.4375 C 16.269531 35.546875 15.792969 34.152344 15.851562 32.636719 C 8.398438 31.1875 2.777344 24.675781 2.777344 16.859375 C 2.777344 7.980469 10.035156 0.78125 18.992188 0.78125 C 20.265625 0.78125 21.507812 0.925781 22.695312 1.199219 C 22.324219 1.175781 21.945312 1.160156 21.566406 1.160156 C 13.785156 1.160156 7.472656 7.414062 7.472656 15.128906 C 7.472656 20.605469 10.652344 25.34375 15.277344 27.632812 C 14.886719 26.523438 14.832031 25.570312 14.828125 25.402344 C 14.714844 22.457031 16.570312 19.609375 19.558594 18.058594 C 19.621094 17.980469 19.734375 17.816406 19.761719 17.578125 C 19.804688 17.199219 19.609375 16.925781 19.558594 16.863281 C 19.558594 16.863281 15.4375 13.632812 17.957031 8.472656 C 18.394531 8.621094 19.085938 8.925781 19.734375 9.550781 C 20.082031 9.886719 20.332031 10.230469 20.503906 10.515625 C 20.761719 10.386719 21.09375 10.253906 21.488281 10.167969 C 22.320312 9.980469 23.027344 10.078125 23.453125 10.175781 C 23.453125 10.175781 23.679688 8.246094 25.566406 7.847656 C 29.230469 14.371094 24.023438 17.378906 24.023438 17.378906 L 23.855469 18.457031 L 24.140625 26.90625 C 24.140625 26.90625 25.597656 27.214844 25.636719 28.507812 C 30.105469 27.175781 33.636719 23.699219 35.023438 19.285156 C 33.847656 27.015625 27.121094 32.941406 18.992188 32.941406 C 18.375 32.941406 17.769531 32.902344 17.171875 32.835938 Z M 17.171875 32.835938 " fill-opacity="1" fill-rule="nonzero"/></g></svg>